<svg xmlns="http://www.w3.org/2000/svg" xmlns:xlink="http://www.w3.org/1999/xlink"
    viewbox="0 0 23 23">
    <path
        d="M21.3111 13.6285C21.4804 13.3644 21.987 12.1229 22.2838 12.09C22.6389 12.0505 22.9724 12.2538 23.2538 12.5915L23.3133 12.6629V13.1925L23.2106 13.6285V13.6483L23.174 13.7093C22.6963 14.5055 22.131 15.1289 21.4347 15.5658C20.7376 16.0032 19.9239 16.2444 18.9638 16.2977L18.9531 16.2983L18.9257 16.3256L18.9161 16.3352C17.8551 17.2901 16.5869 17.9215 15.226 18.3403L15.2018 18.3477C15.2017 18.4859 15.2006 18.6339 15.188 18.7728C15.1749 18.9162 15.1482 19.0704 15.0855 19.2083C15.0417 19.3892 15.0186 19.5501 14.9939 19.7227L14.9934 19.7266C14.982 19.8059 14.9703 19.8878 14.956 19.9735C15.0212 19.9656 15.0854 19.956 15.15 19.9461C15.1628 19.9441 15.1758 19.9421 15.1888 19.9401C15.3294 19.9183 15.4814 19.8947 15.6354 19.892C17.0225 19.591 18.307 18.9959 19.3941 18.109C19.6946 17.8181 20.1221 17.8295 20.3991 17.968C20.9639 18.2504 21.1181 19.0975 20.5429 19.531C18.658 20.9965 16.555 21.8397 14.2381 21.9451L14.2326 21.9453C14.2098 21.9992 14.1941 22.0547 14.1753 22.1213C14.1721 22.1329 14.1687 22.1448 14.1652 22.157L14.164 22.1612C14.1423 22.2372 14.1061 22.364 14.0173 22.4648C13.7899 22.7961 13.3836 23.1157 12.9131 22.9589C12.7277 22.8971 12.5497 22.7966 12.4195 22.6291C12.2875 22.4595 12.2242 22.2464 12.2242 21.9967C12.2242 21.2452 12.0441 20.4883 11.8471 19.6985C10.6151 19.9977 9.37351 20.0962 8.12631 19.8883C6.8511 19.6758 5.6822 19.1445 4.72528 18.4003L4.71266 18.3904L4.70136 18.3791C4.51988 18.1977 4.38199 17.9697 4.3464 17.7206C4.31034 17.4682 4.38325 17.2151 4.58127 17.0072C4.73403 16.7925 4.96341 16.6832 5.21657 16.6832C5.46773 16.6832 5.72589 16.7892 5.96097 16.9655L6.00945 17.0019L6.03655 17.0561C6.06197 17.1069 6.12811 17.181 6.23408 17.2634C6.33462 17.3416 6.44829 17.4099 6.53781 17.4547L6.54385 17.4577C7.97147 18.2191 9.49652 18.3407 11.0437 18.0763C10.6562 17.4218 10.1894 16.7933 9.647 16.3413L9.63806 16.3338L9.63158 16.3274L9.62663 16.323C9.6212 16.3183 9.61346 16.3121 9.60477 16.3063C9.60097 16.3038 9.59762 16.3018 9.59478 16.3002C8.46317 16.401 7.31164 16.4 6.15277 16.0844C3.61092 15.4482 1.89795 13.9525 1.04676 11.5053L1.03251 11.4644V11.421C1.03251 11.3682 1.01263 11.3553 1.00375 11.302C0.99532 11.2514 1.00375 11.1906 1.00375 11.1906V11.0018L1.02317 10.6246L1.07376 10.4456C1.15599 10.2589 1.29905 10.1241 1.47623 10.0532C1.65794 9.98054 1.86006 9.98066 2.04997 10.0358C2.25315 10.0453 2.41524 10.1242 2.53653 10.2657C2.64994 10.398 2.71404 10.5714 2.76483 10.7238C2.78794 10.7931 2.81 10.8632 2.83202 10.9332C2.91744 11.2047 3.00229 11.4743 3.1456 11.6893L3.1564 11.7055L3.16463 11.7231C3.84625 13.1838 5.00875 14.0613 6.58206 14.4561C6.84485 14.5086 7.13073 14.5601 7.42693 14.5976C7.30471 14.4987 7.18621 14.3949 7.06864 14.2778C5.27744 12.6947 4.23217 10.5925 3.60846 8.30557C3.29422 7.15336 3.18871 6.20652 3.18871 5.26042C3.18871 5.07698 3.21953 4.90227 3.31085 4.73789C3.40123 4.57521 3.53852 4.4449 3.71372 4.3281L3.72702 4.31924L3.74131 4.31209C4.05749 4.154 4.39438 4.24396 4.63075 4.42968C4.86714 4.61542 5.03688 4.91853 5.03688 5.26042C5.03688 6.6589 5.33609 7.96165 5.84057 9.27372C6.23409 10.257 6.82096 11.2401 7.5032 12.0307C7.843 11.6765 8.0145 11.2395 8.0145 10.7023C8.0145 10.0829 8.01249 9.51024 7.82455 8.94199C7.70825 8.64727 7.69057 8.36324 7.81058 8.12323C7.93025 7.88388 8.15737 7.74716 8.40507 7.68331C8.87982 7.53137 9.28808 7.86314 9.51153 8.19832L9.5362 8.23531L9.85877 9.5256L9.86069 9.54098C9.96608 10.3841 9.96921 11.1492 9.64098 12.0245L9.63902 12.0297C9.45711 12.4845 9.19804 12.8694 8.8612 13.18C9.19014 13.4832 9.52123 13.7318 9.86267 13.9879L9.87065 13.9939C11.2796 15.1387 12.3958 16.5092 13.1531 18.1049C13.2395 16.4371 12.9397 14.9595 12.2475 13.3762C11.0104 10.7982 9.97802 8.1143 9.25483 5.32484L9.25122 5.31093L9.24919 5.29672C9.20389 4.97959 9.13798 4.66201 9.06814 4.32546C9.06099 4.29101 9.0538 4.25636 9.04659 4.22149C8.9695 3.8489 8.89061 3.45512 8.83789 3.03338L8.83591 3.01752V3.00154C8.83591 2.5889 9.10649 2.17872 9.52481 2.03928L9.53416 2.03617L9.54372 2.03378C9.80451 1.96858 10.0591 1.99618 10.27 2.13042C10.4789 2.26332 10.613 2.48038 10.6764 2.73393C10.7809 3.15205 10.8591 3.56903 10.9357 3.97741L10.9364 3.98099C11.0135 4.39222 11.089 4.79479 11.1893 5.1962C11.5886 6.69335 12.0851 8.18849 12.6781 9.58627C13.113 9.32429 13.5198 9.06942 13.8578 8.75412C13.0489 7.9961 12.6418 6.95963 12.3437 5.97009C12.2239 5.71693 12.2241 5.46269 12.2242 5.18741C12.1003 4.61119 12.5446 4.21565 12.9131 4.09281L12.9225 4.08969L12.932 4.0873C13.2204 4.01522 13.4826 4.08918 13.6831 4.25317C13.8764 4.41139 14.0033 4.64437 14.0647 4.89013L14.0679 4.90298L14.0698 4.91609C14.1681 5.6039 14.3622 6.18211 14.748 6.76085L14.7569 6.77415L14.764 6.78844C14.803 6.86642 14.8646 6.94989 14.9451 7.05725L14.9516 7.06592C14.9772 7.10002 15.0049 7.13688 15.0327 7.17574C15.295 6.62507 15.5304 6.02263 15.6151 5.42947L15.6171 5.41535C15.7142 4.92993 15.7152 4.54287 15.7152 4.0283C15.7152 3.50194 16.1134 3.05288 16.588 3.05288C16.8262 3.05288 17.0388 3.16974 17.1961 3.31129C17.3552 3.45456 17.4839 3.64561 17.5502 3.84445L17.5553 3.85961L17.5584 3.87528C17.616 4.16322 17.6148 4.44496 17.6016 4.70851C17.5968 4.80355 17.5908 4.89361 17.5849 4.98108C17.578 5.08445 17.5713 5.1842 17.5673 5.28426C17.9688 5.20507 18.4472 4.95869 18.7424 4.59502C18.9502 4.28318 19.1306 4.00801 19.2194 3.74177C19.3714 3.28586 19.8166 3.15555 20.079 3.15555C20.5177 3.15555 20.7958 3.45051 20.9246 3.70815C20.9818 3.82255 21.0287 3.94266 21.0287 4.07964C21.0287 4.21386 20.9837 4.33187 20.9281 4.4442C20.6089 5.18686 20.2043 5.78395 19.6701 6.24964C19.1342 6.71686 18.4806 7.04067 17.6809 7.25394L17.6484 7.2626H17.6147C17.5505 7.2626 17.4775 7.27909 17.3901 7.30407C17.3785 7.30737 17.3655 7.31116 17.352 7.31512C17.3218 7.32395 17.2887 7.33366 17.2608 7.34092C17.2344 7.34781 17.1988 7.35648 17.1598 7.3614C17.1453 7.37486 17.1247 7.39247 17.0998 7.40862C16.4556 9.24466 15.2105 10.5837 13.4734 11.4185C13.6157 11.786 13.7786 12.1352 13.9456 12.4932L13.9475 12.4972C14.1256 12.8789 14.3085 13.2707 14.4658 13.6898C14.8471 14.6436 15.0554 15.5124 15.1688 16.5241C15.1742 16.521 15.1799 16.5177 15.1857 16.5143L15.1923 16.5106C15.2344 16.4863 15.285 16.4573 15.3437 16.4279L15.3533 16.4231L15.3632 16.4192C15.8463 16.2259 16.3339 15.9356 16.8426 15.6304C16.8451 15.6281 16.8476 15.6259 16.85 15.6237C16.0217 14.5537 15.7153 13.2814 15.818 11.9236C15.8247 11.4538 16.271 11.0616 16.7933 11.0616C17.0696 11.0616 17.3002 11.1688 17.4558 11.3633C17.6053 11.5502 17.6661 11.7925 17.6661 12.0371C17.6661 12.8346 17.7656 13.5024 18.1443 14.1662C18.2051 14.2677 18.2482 14.339 18.2827 14.3901C18.3258 14.351 18.3815 14.2956 18.46 14.2171C19.5393 13.1378 20.1343 11.7617 20.3357 10.2744V9.6755C20.3357 9.39923 20.4428 9.16865 20.6373 9.01301C20.8242 8.86354 21.0666 8.80275 21.3111 8.80275C21.5486 8.80275 21.7646 8.91891 21.9161 9.07045C22.0677 9.22199 22.1838 9.438 22.1838 9.6755C22.1838 10.6941 21.6805 12.6977 21.3111 13.6285Z"
        fill="currentcolor" />
</svg>