<svg viewBox="0 0 20 20" fill="none" xmlns="http://www.w3.org/2000/svg">
    <circle cx="10" cy="10" r="9" stroke="currentcolor" stroke-width="2" fill="none" />
    <path
        d="M15 6C15 4.4 16.3333 4.33333 17 4.5L19.5 11.5C19 11.6667 17.9 12 17.5 12C17 12 14.5 12 15.5 10C16.5 8 15 8 15 6Z"
        fill="currentcolor" />
    <path
        d="M3 4.5L6 2C6.5 2.66667 7.7 4.1 8.5 4.5C9.5 5 11.5 5 11.5 6.5C11.5 8 9.5 8.25 8 9C7.10557 9.44721 9.69258 12.5 7 12.5C5 12.5 4 11 3.5 9.5C3 8 4.5 7.5 4.5 6.5C4.5 5.7 3.5 4.83333 3 4.5Z"
        fill="currentcolor" />
    <path
        d="M13 19H9.5C10 18.8333 10.3 18.2 9.5 17C8.5 15.5 7 16 7 15C7 14 8.5 13.5 11.5 13.5C14.5 13.5 14.5 15.5 13.5 16.5C12.7 17.3 12.8333 18.5 13 19Z"
        fill="currentcolor" />
    <path d="M4.5 14C3.7 12.4 2.16667 12.6667 1.5 13L4 16.5C4.5 16.3333 5.3 15.6 4.5 14Z"
        fill="currentcolor" />
</svg>