<svg xmlns="http://www.w3.org/2000/svg" xmlns:xlink="http://www.w3.org/1999/xlink"
    width="23"
    height="23"
    viewbox="0 0 23 23">
    <path fill-rule="evenodd" clip-rule="evenodd"
        d="M10.015 21.7819C14.7044 22.4915 19.3256 19.0723 21.3256 15.0723C23.3256 11.0723 22.3351 -0.427745 17.3256 2.07225C14.4926 3.48607 14.2212 5.62236 13.9792 7.52669C13.7934 8.98972 13.6249 10.3158 12.3256 11.0723C11.1957 11.7301 9.6355 11.1548 8.05032 10.5704C5.44011 9.60804 2.7621 8.62068 1.8256 13.0723C0.32035 20.2273 5.32561 21.0723 10.015 21.7819ZM11.4468 18.5149C13.8249 18.5697 16.7419 18.6371 18.5 16C20.5 13 21.5 5.85308 18.5 6.49999C16.8952 6.84605 16.435 8.10956 15.8949 9.59263C15.4252 10.882 14.8952 12.3373 13.5 13.5C11.9015 14.832 9.87724 14.7446 8.25905 14.6747C6.84021 14.6134 5.73359 14.5656 5.5 15.5C5 17.5 8 18.5 10.5 18.5C10.8024 18.5 11.1195 18.5073 11.4468 18.5149Z"
        fill="currentcolor" />
    <path
        d="M7.54925 8.87835C7.83812 10.1673 10.0046 9.52285 10.2935 8.07272C10.5824 6.62259 8.84916 6.46146 7.98255 6.62259C7.11595 6.78372 7.26038 7.58934 7.54925 8.87835Z"
        fill="currentcolor" />
</svg>